<mxfile host="app.diagrams.net" modified="2024-05-29T07:07:03.768Z" agent="Mozilla/5.0 (Macintosh; Intel Mac OS X 10_15_7) AppleWebKit/605.1.15 (KHTML, like Gecko) Version/17.5 Safari/605.1.15" version="24.4.9" etag="8PMEZrL8aZed1C0UM162" type="github">
  <diagram name="Page-1" id="wXrRUtBEx0Rre9LIfmWa">
    <mxGraphModel>
      <root>
        <mxCell id="0" />
        <mxCell id="1" parent="0" />
      </root>
    </mxGraphModel>
  </diagram>
</mxfile>
